Coordinates
version=1
nRows=4
nColumns=63
inDegrees=yes

Units are S.I. units (second, meters, Newtons, ...)
If the header above contains a line with 'inDegrees', this indicates whether rotational values are in degrees (yes) or radians (no).

endheader
time	pelvis_tilt	pelvis_list	pelvis_rotation	pelvis_tx	pelvis_ty	pelvis_tz	hip_flexion_r	hip_adduction_r	hip_rotation_r	knee_angle_r	knee_angle_r_beta	ankle_angle_r	subtalar_angle_r	mtp_angle_r	hip_flexion_l	hip_adduction_l	hip_rotation_l	knee_angle_l	knee_angle_l_beta	ankle_angle_l	subtalar_angle_l	mtp_angle_l	L5_S1_Flex_Ext	L5_S1_Lat_Bending	L5_S1_axial_rotation	L4_L5_Flex_Ext	L4_L5_Lat_Bending	L4_L5_axial_rotation	L3_L4_Flex_Ext	L3_L4_Lat_Bending	L3_L4_axial_rotation	L2_L3_Flex_Ext	L2_L3_Lat_Bending	L2_L3_axial_rotation	L1_L2_Flex_Ext	L1_L2_Lat_Bending	L1_L2_axial_rotation	L1_T12_Flex_Ext	L1_T12_Lat_Bending	L1_T12_axial_rotation	Abs_r3	Abs_r2	Abs_r1	Abs_t1	Abs_t2	neck_flexion	neck_bending	neck_rotation	arm_flex_r	arm_add_r	arm_rot_r	elbow_flex_r	pro_sup_r	wrist_flex_r	wrist_dev_r	arm_flex_l	arm_add_l	arm_rot_l	elbow_flex_l	pro_sup_l	wrist_flex_l	wrist_dev_l
      1.71875000	      4.12541194	    -31.35265435	     94.31770385	      0.20852048	      0.82084275	      0.69014673	     39.99891778	      0.66256530	      4.57522351	     17.73492245	      0.30953279	     23.72955045	     -6.11890521	      0.00000000	     40.07682905	     -3.05365178	     -9.68446805	     16.37253386	      0.28575462	     27.17888366	      9.68946047	      0.00000000	      0.22366834	     -1.28650773	      1.69166394	      0.41537448	     -1.71105528	      1.79739293	      0.36746472	     -3.12801489	      1.79739293	      0.25563055	     -3.12801489	      1.48020595	      0.20769842	     -2.62344656	      1.37447695	      0.12780409	     -1.99280047	      1.26874795	      1.59764062	    -14.55323270	      9.40852733	      0.00000000	      0.00000000	      8.49394514	      3.70039126	    -14.61189564	      9.71411093	    -12.74187015	     24.10953853	     55.15534639	     77.23643168	     -3.45034619	      5.18894732	     36.91881343	     -4.56772646	    148.97354237	      0.38878149	      1.06859616	    -19.78208585	    -24.38442450
      1.75000000	      4.07852126	    -32.49334768	     94.98948015	      0.20814044	      0.81818699	      0.68912022	     41.70016446	      0.20729599	      4.39756445	     18.81739219	      0.32842545	     24.40900370	     -6.40297763	      0.00000000	     41.24103461	     -2.60089128	     -9.73262496	     16.49268525	      0.28785166	     27.11865530	     10.11736572	      0.00000000	      0.19528755	     -1.32642092	      2.00330977	      0.36266851	     -1.76413982	      2.12851663	      0.32083791	     -3.22505983	      2.12851663	      0.22319414	     -3.22505983	      1.75289605	      0.18134402	     -2.70483754	      1.62768918	      0.11158730	     -2.05462601	      1.50248232	      1.39491943	    -15.00473874	     11.14180793	      0.00000000	      0.00000000	      9.89404671	      2.32357105	    -14.48991169	     10.32607741	    -13.59387694	     23.83720776	     57.40790326	     78.41734852	     -6.53040648	      3.91558783	     36.62487955	     -3.18717119	    147.72967878	      0.35138591	      0.96826963	    -18.58809184	    -24.46869625
      1.78125000	      3.75706647	    -33.66787833	     95.47376909	      0.20912325	      0.81554438	      0.68783713	     43.34463041	     -0.34583688	      4.51279615	     19.76720201	      0.34500276	     25.03015973	     -6.74808138	      0.00000000	     42.22877152	     -2.17354635	    -10.98172418	     16.38704950	      0.28600797	     26.95950887	     11.87789609	      0.00000000	      0.15875216	     -1.39261087	      2.38864868	      0.29481863	     -1.85217246	      2.53793922	      0.26081392	     -3.38599407	      2.53793922	      0.18143784	     -3.38599407	      2.09006760	      0.14741725	     -2.83981208	      1.94077705	      0.09071098	     -2.15715424	      1.79148651	      1.13395079	    -15.75349267	     13.28494738	      0.00000000	      0.00000000	     11.23944790	      0.67689913	    -15.04045813	     10.71791071	    -14.36243105	     22.72249805	     60.29404759	     81.36351088	    -11.09410870	      4.19569709	     36.69992074	     -2.12683380	    144.42260316	      0.34009992	      0.95052991	     -7.16682681	    -24.54919075
      1.81250000	      3.70398547	    -35.02066875	     96.35692445	      0.21026770	      0.81248697	      0.68614517	     45.05623751	     -0.90629982	      4.29222597	     20.57779042	      0.35915020	     25.64794479	     -7.11156674	      0.00000000	     43.44411271	     -1.65323259	    -11.10803468	     16.31764068	      0.28479656	     26.62645208	     12.53391194	      0.00000000	      0.17004403	     -1.42659561	      2.64212592	      0.31578877	     -1.89737217	      2.80725879	      0.27936534	     -3.46862457	      2.80725879	      0.19434332	     -3.46862457	      2.31186018	      0.15790289	     -2.90911377	      2.14672731	      0.09716316	     -2.20979660	      1.98159444	      1.21460750	    -16.13793489	     14.69471174	      0.00000000	      0.00000000	     12.52083001	     -0.78390348	    -15.49479233	     11.34482478	    -15.30395656	     21.92872825	     63.01803546	     83.62038673	    -14.53373734	      5.08032607	     35.96533452	     -1.12295304	    143.41302098	      0.34960106	      0.98473333	     -5.40878860	    -24.56237295
